<svg xmlns="http://www.w3.org/2000/svg" width="860" height="420" viewBox="0 0 860 420">
<rect width="100%" height="100%" fill="#fbfaf7"/>
<text x="430.0" y="28" text-anchor="middle" font-family="serif" font-size="20" fill="#1f2933">reward sequence summaries</text>
<line x1="70" y1="55" x2="70" y2="350" stroke="#374151"/>
<line x1="70" y1="350" x2="830" y2="350" stroke="#374151"/>
<line x1="70" y1="350.00" x2="830" y2="350.00" stroke="#e5e7eb"/>
<text x="62" y="354.00" text-anchor="end" font-family="monospace" font-size="12" fill="#4b5563">0.1402</text>
<line x1="70" y1="291.00" x2="830" y2="291.00" stroke="#e5e7eb"/>
<text x="62" y="295.00" text-anchor="end" font-family="monospace" font-size="12" fill="#4b5563">0.2917</text>
<line x1="70" y1="232.00" x2="830" y2="232.00" stroke="#e5e7eb"/>
<text x="62" y="236.00" text-anchor="end" font-family="monospace" font-size="12" fill="#4b5563">0.4433</text>
<line x1="70" y1="173.00" x2="830" y2="173.00" stroke="#e5e7eb"/>
<text x="62" y="177.00" text-anchor="end" font-family="monospace" font-size="12" fill="#4b5563">0.5949</text>
<line x1="70" y1="114.00" x2="830" y2="114.00" stroke="#e5e7eb"/>
<text x="62" y="118.00" text-anchor="end" font-family="monospace" font-size="12" fill="#4b5563">0.7465</text>
<line x1="70" y1="55.00" x2="830" y2="55.00" stroke="#e5e7eb"/>
<text x="62" y="59.00" text-anchor="end" font-family="monospace" font-size="12" fill="#4b5563">0.8980</text>
<line x1="165.00" y1="221.12" x2="165.00" y2="201.04" stroke="#2563eb" stroke-width="2"/>
<rect x="122.25" y="207.23" width="85.50" height="7.92" fill="#2563eb" fill-opacity="0.16" stroke="#2563eb" stroke-width="2"/>
<line x1="122.25" y1="211.61" x2="207.75" y2="211.61" stroke="#2563eb" stroke-width="3"/>
<circle cx="165.00" cy="211.51" r="5" fill="white" stroke="#2563eb" stroke-width="2"/>
<circle cx="153.00" cy="218.85" r="3" fill="#2563eb" fill-opacity="0.58"/>
<circle cx="157.00" cy="214.00" r="3" fill="#2563eb" fill-opacity="0.58"/>
<circle cx="161.00" cy="213.07" r="3" fill="#2563eb" fill-opacity="0.58"/>
<circle cx="165.00" cy="215.06" r="3" fill="#2563eb" fill-opacity="0.58"/>
<circle cx="169.00" cy="207.38" r="3" fill="#2563eb" fill-opacity="0.58"/>
<circle cx="173.00" cy="220.55" r="3" fill="#2563eb" fill-opacity="0.58"/>
<circle cx="177.00" cy="209.55" r="3" fill="#2563eb" fill-opacity="0.58"/>
<circle cx="153.00" cy="211.92" r="3" fill="#2563eb" fill-opacity="0.58"/>
<circle cx="157.00" cy="216.92" r="3" fill="#2563eb" fill-opacity="0.58"/>
<circle cx="161.00" cy="205.28" r="3" fill="#2563eb" fill-opacity="0.58"/>
<circle cx="165.00" cy="211.30" r="3" fill="#2563eb" fill-opacity="0.58"/>
<circle cx="169.00" cy="215.42" r="3" fill="#2563eb" fill-opacity="0.58"/>
<circle cx="173.00" cy="206.80" r="3" fill="#2563eb" fill-opacity="0.58"/>
<circle cx="177.00" cy="205.07" r="3" fill="#2563eb" fill-opacity="0.58"/>
<circle cx="153.00" cy="221.12" r="3" fill="#2563eb" fill-opacity="0.58"/>
<circle cx="157.00" cy="201.04" r="3" fill="#2563eb" fill-opacity="0.58"/>
<circle cx="161.00" cy="213.30" r="3" fill="#2563eb" fill-opacity="0.58"/>
<circle cx="165.00" cy="209.64" r="3" fill="#2563eb" fill-opacity="0.58"/>
<circle cx="169.00" cy="204.07" r="3" fill="#2563eb" fill-opacity="0.58"/>
<circle cx="173.00" cy="209.91" r="3" fill="#2563eb" fill-opacity="0.58"/>
<text x="165.00" y="385" text-anchor="middle" font-family="sans-serif" font-size="14" fill="#111827">R_mean step4</text>
<line x1="355.00" y1="221.12" x2="355.00" y2="204.07" stroke="#dc2626" stroke-width="2"/>
<rect x="312.25" y="208.16" width="85.50" height="6.99" fill="#dc2626" fill-opacity="0.16" stroke="#dc2626" stroke-width="2"/>
<line x1="312.25" y1="211.61" x2="397.75" y2="211.61" stroke="#dc2626" stroke-width="3"/>
<circle cx="355.00" cy="211.88" r="5" fill="white" stroke="#dc2626" stroke-width="2"/>
<circle cx="343.00" cy="211.30" r="3" fill="#dc2626" fill-opacity="0.58"/>
<circle cx="347.00" cy="211.92" r="3" fill="#dc2626" fill-opacity="0.58"/>
<circle cx="351.00" cy="209.91" r="3" fill="#dc2626" fill-opacity="0.58"/>
<circle cx="355.00" cy="216.92" r="3" fill="#dc2626" fill-opacity="0.58"/>
<circle cx="359.00" cy="205.28" r="3" fill="#dc2626" fill-opacity="0.58"/>
<circle cx="363.00" cy="213.07" r="3" fill="#dc2626" fill-opacity="0.58"/>
<circle cx="367.00" cy="214.00" r="3" fill="#dc2626" fill-opacity="0.58"/>
<circle cx="343.00" cy="206.80" r="3" fill="#dc2626" fill-opacity="0.58"/>
<circle cx="347.00" cy="209.55" r="3" fill="#dc2626" fill-opacity="0.58"/>
<circle cx="351.00" cy="218.85" r="3" fill="#dc2626" fill-opacity="0.58"/>
<circle cx="355.00" cy="213.30" r="3" fill="#dc2626" fill-opacity="0.58"/>
<circle cx="359.00" cy="205.07" r="3" fill="#dc2626" fill-opacity="0.58"/>
<circle cx="363.00" cy="221.12" r="3" fill="#dc2626" fill-opacity="0.58"/>
<circle cx="367.00" cy="207.38" r="3" fill="#dc2626" fill-opacity="0.58"/>
<circle cx="343.00" cy="215.06" r="3" fill="#dc2626" fill-opacity="0.58"/>
<circle cx="347.00" cy="204.07" r="3" fill="#dc2626" fill-opacity="0.58"/>
<circle cx="351.00" cy="215.42" r="3" fill="#dc2626" fill-opacity="0.58"/>
<circle cx="355.00" cy="209.64" r="3" fill="#dc2626" fill-opacity="0.58"/>
<circle cx="359.00" cy="220.55" r="3" fill="#dc2626" fill-opacity="0.58"/>
<circle cx="363.00" cy="208.42" r="3" fill="#dc2626" fill-opacity="0.58"/>
<text x="355.00" y="385" text-anchor="middle" font-family="sans-serif" font-size="14" fill="#111827">R_mean final</text>
<line x1="545.00" y1="329.66" x2="545.00" y2="75.34" stroke="#059669" stroke-width="2"/>
<rect x="502.25" y="109.53" width="85.50" height="118.65" fill="#059669" fill-opacity="0.16" stroke="#059669" stroke-width="2"/>
<line x1="502.25" y1="149.64" x2="587.75" y2="149.64" stroke="#059669" stroke-width="3"/>
<circle cx="545.00" cy="173.65" r="5" fill="white" stroke="#059669" stroke-width="2"/>
<circle cx="533.00" cy="146.47" r="3" fill="#059669" fill-opacity="0.58"/>
<circle cx="537.00" cy="114.78" r="3" fill="#059669" fill-opacity="0.58"/>
<circle cx="541.00" cy="109.91" r="3" fill="#059669" fill-opacity="0.58"/>
<circle cx="545.00" cy="224.89" r="3" fill="#059669" fill-opacity="0.58"/>
<circle cx="549.00" cy="218.05" r="3" fill="#059669" fill-opacity="0.58"/>
<circle cx="553.00" cy="288.03" r="3" fill="#059669" fill-opacity="0.58"/>
<circle cx="557.00" cy="139.04" r="3" fill="#059669" fill-opacity="0.58"/>
<circle cx="533.00" cy="85.22" r="3" fill="#059669" fill-opacity="0.58"/>
<circle cx="537.00" cy="99.15" r="3" fill="#059669" fill-opacity="0.58"/>
<circle cx="541.00" cy="108.40" r="3" fill="#059669" fill-opacity="0.58"/>
<circle cx="545.00" cy="75.34" r="3" fill="#059669" fill-opacity="0.58"/>
<circle cx="549.00" cy="251.43" r="3" fill="#059669" fill-opacity="0.58"/>
<circle cx="553.00" cy="121.84" r="3" fill="#059669" fill-opacity="0.58"/>
<circle cx="557.00" cy="183.26" r="3" fill="#059669" fill-opacity="0.58"/>
<circle cx="533.00" cy="205.73" r="3" fill="#059669" fill-opacity="0.58"/>
<circle cx="537.00" cy="329.66" r="3" fill="#059669" fill-opacity="0.58"/>
<circle cx="541.00" cy="152.80" r="3" fill="#059669" fill-opacity="0.58"/>
<circle cx="545.00" cy="287.28" r="3" fill="#059669" fill-opacity="0.58"/>
<circle cx="549.00" cy="238.05" r="3" fill="#059669" fill-opacity="0.58"/>
<circle cx="553.00" cy="93.72" r="3" fill="#059669" fill-opacity="0.58"/>
<text x="545.00" y="385" text-anchor="middle" font-family="sans-serif" font-size="14" fill="#111827">R_last step4</text>
<line x1="735.00" y1="316.29" x2="735.00" y2="75.34" stroke="#d97706" stroke-width="2"/>
<rect x="692.25" y="109.53" width="85.50" height="118.65" fill="#d97706" fill-opacity="0.16" stroke="#d97706" stroke-width="2"/>
<line x1="692.25" y1="149.64" x2="777.75" y2="149.64" stroke="#d97706" stroke-width="3"/>
<circle cx="735.00" cy="172.98" r="5" fill="white" stroke="#d97706" stroke-width="2"/>
<circle cx="723.00" cy="75.34" r="3" fill="#d97706" fill-opacity="0.58"/>
<circle cx="727.00" cy="85.22" r="3" fill="#d97706" fill-opacity="0.58"/>
<circle cx="731.00" cy="93.72" r="3" fill="#d97706" fill-opacity="0.58"/>
<circle cx="735.00" cy="99.15" r="3" fill="#d97706" fill-opacity="0.58"/>
<circle cx="739.00" cy="108.40" r="3" fill="#d97706" fill-opacity="0.58"/>
<circle cx="743.00" cy="109.91" r="3" fill="#d97706" fill-opacity="0.58"/>
<circle cx="747.00" cy="114.78" r="3" fill="#d97706" fill-opacity="0.58"/>
<circle cx="723.00" cy="121.84" r="3" fill="#d97706" fill-opacity="0.58"/>
<circle cx="727.00" cy="139.04" r="3" fill="#d97706" fill-opacity="0.58"/>
<circle cx="731.00" cy="146.47" r="3" fill="#d97706" fill-opacity="0.58"/>
<circle cx="735.00" cy="152.80" r="3" fill="#d97706" fill-opacity="0.58"/>
<circle cx="739.00" cy="183.26" r="3" fill="#d97706" fill-opacity="0.58"/>
<circle cx="743.00" cy="205.73" r="3" fill="#d97706" fill-opacity="0.58"/>
<circle cx="747.00" cy="218.05" r="3" fill="#d97706" fill-opacity="0.58"/>
<circle cx="723.00" cy="224.89" r="3" fill="#d97706" fill-opacity="0.58"/>
<circle cx="727.00" cy="238.05" r="3" fill="#d97706" fill-opacity="0.58"/>
<circle cx="731.00" cy="251.43" r="3" fill="#d97706" fill-opacity="0.58"/>
<circle cx="735.00" cy="287.28" r="3" fill="#d97706" fill-opacity="0.58"/>
<circle cx="739.00" cy="288.03" r="3" fill="#d97706" fill-opacity="0.58"/>
<circle cx="743.00" cy="316.29" r="3" fill="#d97706" fill-opacity="0.58"/>
<text x="735.00" y="385" text-anchor="middle" font-family="sans-serif" font-size="14" fill="#111827">R_last final</text>
</svg>