<svg xmlns="http://www.w3.org/2000/svg" width="860" height="420" viewBox="0 0 860 420">
<rect width="100%" height="100%" fill="#fbfaf7"/>
<text x="430.0" y="28" text-anchor="middle" font-family="serif" font-size="20" fill="#1f2933">rho: after step 4.5 vs final</text>
<line x1="70" y1="55" x2="70" y2="350" stroke="#374151"/>
<line x1="70" y1="350" x2="830" y2="350" stroke="#374151"/>
<line x1="70" y1="350.00" x2="830" y2="350.00" stroke="#e5e7eb"/>
<text x="62" y="354.00" text-anchor="end" font-family="monospace" font-size="12" fill="#4b5563">0.2556</text>
<line x1="70" y1="291.00" x2="830" y2="291.00" stroke="#e5e7eb"/>
<text x="62" y="295.00" text-anchor="end" font-family="monospace" font-size="12" fill="#4b5563">0.3599</text>
<line x1="70" y1="232.00" x2="830" y2="232.00" stroke="#e5e7eb"/>
<text x="62" y="236.00" text-anchor="end" font-family="monospace" font-size="12" fill="#4b5563">0.4641</text>
<line x1="70" y1="173.00" x2="830" y2="173.00" stroke="#e5e7eb"/>
<text x="62" y="177.00" text-anchor="end" font-family="monospace" font-size="12" fill="#4b5563">0.5684</text>
<line x1="70" y1="114.00" x2="830" y2="114.00" stroke="#e5e7eb"/>
<text x="62" y="118.00" text-anchor="end" font-family="monospace" font-size="12" fill="#4b5563">0.6727</text>
<line x1="70" y1="55.00" x2="830" y2="55.00" stroke="#e5e7eb"/>
<text x="62" y="59.00" text-anchor="end" font-family="monospace" font-size="12" fill="#4b5563">0.7769</text>
<line x1="260.00" y1="329.66" x2="260.00" y2="75.34" stroke="#2563eb" stroke-width="2"/>
<rect x="200.00" y="110.06" width="120.00" height="121.25" fill="#2563eb" fill-opacity="0.16" stroke="#2563eb" stroke-width="2"/>
<line x1="200.00" y1="153.03" x2="320.00" y2="153.03" stroke="#2563eb" stroke-width="3"/>
<circle cx="260.00" cy="175.48" r="5" fill="white" stroke="#2563eb" stroke-width="2"/>
<circle cx="248.00" cy="151.02" r="3" fill="#2563eb" fill-opacity="0.58"/>
<circle cx="252.00" cy="116.65" r="3" fill="#2563eb" fill-opacity="0.58"/>
<circle cx="256.00" cy="111.29" r="3" fill="#2563eb" fill-opacity="0.58"/>
<circle cx="260.00" cy="229.16" r="3" fill="#2563eb" fill-opacity="0.58"/>
<circle cx="264.00" cy="218.85" r="3" fill="#2563eb" fill-opacity="0.58"/>
<circle cx="268.00" cy="295.80" r="3" fill="#2563eb" fill-opacity="0.58"/>
<circle cx="272.00" cy="139.39" r="3" fill="#2563eb" fill-opacity="0.58"/>
<circle cx="248.00" cy="85.66" r="3" fill="#2563eb" fill-opacity="0.58"/>
<circle cx="252.00" cy="102.02" r="3" fill="#2563eb" fill-opacity="0.58"/>
<circle cx="256.00" cy="106.36" r="3" fill="#2563eb" fill-opacity="0.58"/>
<circle cx="260.00" cy="75.34" r="3" fill="#2563eb" fill-opacity="0.58"/>
<circle cx="264.00" cy="256.33" r="3" fill="#2563eb" fill-opacity="0.58"/>
<circle cx="268.00" cy="120.69" r="3" fill="#2563eb" fill-opacity="0.58"/>
<circle cx="272.00" cy="182.44" r="3" fill="#2563eb" fill-opacity="0.58"/>
<circle cx="248.00" cy="212.31" r="3" fill="#2563eb" fill-opacity="0.58"/>
<circle cx="252.00" cy="329.66" r="3" fill="#2563eb" fill-opacity="0.58"/>
<circle cx="256.00" cy="155.04" r="3" fill="#2563eb" fill-opacity="0.58"/>
<circle cx="260.00" cy="290.29" r="3" fill="#2563eb" fill-opacity="0.58"/>
<circle cx="264.00" cy="237.76" r="3" fill="#2563eb" fill-opacity="0.58"/>
<circle cx="268.00" cy="93.44" r="3" fill="#2563eb" fill-opacity="0.58"/>
<text x="260.00" y="385" text-anchor="middle" font-family="sans-serif" font-size="14" fill="#111827">after_step4</text>
<line x1="640.00" y1="319.28" x2="640.00" y2="75.34" stroke="#dc2626" stroke-width="2"/>
<rect x="580.00" y="110.06" width="120.00" height="121.25" fill="#dc2626" fill-opacity="0.16" stroke="#dc2626" stroke-width="2"/>
<line x1="580.00" y1="153.03" x2="700.00" y2="153.03" stroke="#dc2626" stroke-width="3"/>
<circle cx="640.00" cy="174.96" r="5" fill="white" stroke="#dc2626" stroke-width="2"/>
<circle cx="628.00" cy="75.34" r="3" fill="#dc2626" fill-opacity="0.58"/>
<circle cx="632.00" cy="85.66" r="3" fill="#dc2626" fill-opacity="0.58"/>
<circle cx="636.00" cy="93.44" r="3" fill="#dc2626" fill-opacity="0.58"/>
<circle cx="640.00" cy="102.02" r="3" fill="#dc2626" fill-opacity="0.58"/>
<circle cx="644.00" cy="106.36" r="3" fill="#dc2626" fill-opacity="0.58"/>
<circle cx="648.00" cy="111.29" r="3" fill="#dc2626" fill-opacity="0.58"/>
<circle cx="652.00" cy="116.65" r="3" fill="#dc2626" fill-opacity="0.58"/>
<circle cx="628.00" cy="120.69" r="3" fill="#dc2626" fill-opacity="0.58"/>
<circle cx="632.00" cy="139.39" r="3" fill="#dc2626" fill-opacity="0.58"/>
<circle cx="636.00" cy="151.02" r="3" fill="#dc2626" fill-opacity="0.58"/>
<circle cx="640.00" cy="155.04" r="3" fill="#dc2626" fill-opacity="0.58"/>
<circle cx="644.00" cy="182.44" r="3" fill="#dc2626" fill-opacity="0.58"/>
<circle cx="648.00" cy="212.31" r="3" fill="#dc2626" fill-opacity="0.58"/>
<circle cx="652.00" cy="218.85" r="3" fill="#dc2626" fill-opacity="0.58"/>
<circle cx="628.00" cy="229.16" r="3" fill="#dc2626" fill-opacity="0.58"/>
<circle cx="632.00" cy="237.76" r="3" fill="#dc2626" fill-opacity="0.58"/>
<circle cx="636.00" cy="256.33" r="3" fill="#dc2626" fill-opacity="0.58"/>
<circle cx="640.00" cy="290.29" r="3" fill="#dc2626" fill-opacity="0.58"/>
<circle cx="644.00" cy="295.80" r="3" fill="#dc2626" fill-opacity="0.58"/>
<circle cx="648.00" cy="319.28" r="3" fill="#dc2626" fill-opacity="0.58"/>
<text x="640.00" y="385" text-anchor="middle" font-family="sans-serif" font-size="14" fill="#111827">final</text>
</svg>