<svg xmlns="http://www.w3.org/2000/svg" width="860" height="420" viewBox="0 0 860 420">
<rect width="100%" height="100%" fill="#fbfaf7"/>
<text x="430.0" y="28" text-anchor="middle" font-family="serif" font-size="20" fill="#1f2933">tau hidden-state summaries</text>
<line x1="70" y1="55" x2="70" y2="350" stroke="#374151"/>
<line x1="70" y1="350" x2="830" y2="350" stroke="#374151"/>
<line x1="70" y1="350.00" x2="830" y2="350.00" stroke="#e5e7eb"/>
<text x="62" y="354.00" text-anchor="end" font-family="monospace" font-size="12" fill="#4b5563">0.0121</text>
<line x1="70" y1="291.00" x2="830" y2="291.00" stroke="#e5e7eb"/>
<text x="62" y="295.00" text-anchor="end" font-family="monospace" font-size="12" fill="#4b5563">0.0796</text>
<line x1="70" y1="232.00" x2="830" y2="232.00" stroke="#e5e7eb"/>
<text x="62" y="236.00" text-anchor="end" font-family="monospace" font-size="12" fill="#4b5563">0.1472</text>
<line x1="70" y1="173.00" x2="830" y2="173.00" stroke="#e5e7eb"/>
<text x="62" y="177.00" text-anchor="end" font-family="monospace" font-size="12" fill="#4b5563">0.2147</text>
<line x1="70" y1="114.00" x2="830" y2="114.00" stroke="#e5e7eb"/>
<text x="62" y="118.00" text-anchor="end" font-family="monospace" font-size="12" fill="#4b5563">0.2822</text>
<line x1="70" y1="55.00" x2="830" y2="55.00" stroke="#e5e7eb"/>
<text x="62" y="59.00" text-anchor="end" font-family="monospace" font-size="12" fill="#4b5563">0.3497</text>
<line x1="165.00" y1="320.11" x2="165.00" y2="316.31" stroke="#2563eb" stroke-width="2"/>
<rect x="122.25" y="317.86" width="85.50" height="1.13" fill="#2563eb" fill-opacity="0.16" stroke="#2563eb" stroke-width="2"/>
<line x1="122.25" y1="318.08" x2="207.75" y2="318.08" stroke="#2563eb" stroke-width="3"/>
<circle cx="165.00" cy="318.27" r="5" fill="white" stroke="#2563eb" stroke-width="2"/>
<circle cx="153.00" cy="318.25" r="3" fill="#2563eb" fill-opacity="0.58"/>
<circle cx="157.00" cy="316.69" r="3" fill="#2563eb" fill-opacity="0.58"/>
<circle cx="161.00" cy="317.65" r="3" fill="#2563eb" fill-opacity="0.58"/>
<circle cx="165.00" cy="318.88" r="3" fill="#2563eb" fill-opacity="0.58"/>
<circle cx="169.00" cy="319.35" r="3" fill="#2563eb" fill-opacity="0.58"/>
<circle cx="173.00" cy="318.08" r="3" fill="#2563eb" fill-opacity="0.58"/>
<circle cx="177.00" cy="317.92" r="3" fill="#2563eb" fill-opacity="0.58"/>
<circle cx="153.00" cy="320.11" r="3" fill="#2563eb" fill-opacity="0.58"/>
<circle cx="157.00" cy="318.09" r="3" fill="#2563eb" fill-opacity="0.58"/>
<circle cx="161.00" cy="317.85" r="3" fill="#2563eb" fill-opacity="0.58"/>
<circle cx="165.00" cy="317.86" r="3" fill="#2563eb" fill-opacity="0.58"/>
<circle cx="169.00" cy="318.89" r="3" fill="#2563eb" fill-opacity="0.58"/>
<circle cx="173.00" cy="317.01" r="3" fill="#2563eb" fill-opacity="0.58"/>
<circle cx="177.00" cy="316.31" r="3" fill="#2563eb" fill-opacity="0.58"/>
<circle cx="153.00" cy="319.60" r="3" fill="#2563eb" fill-opacity="0.58"/>
<circle cx="157.00" cy="317.94" r="3" fill="#2563eb" fill-opacity="0.58"/>
<circle cx="161.00" cy="319.38" r="3" fill="#2563eb" fill-opacity="0.58"/>
<circle cx="165.00" cy="319.27" r="3" fill="#2563eb" fill-opacity="0.58"/>
<circle cx="169.00" cy="318.35" r="3" fill="#2563eb" fill-opacity="0.58"/>
<circle cx="173.00" cy="317.86" r="3" fill="#2563eb" fill-opacity="0.58"/>
<text x="165.00" y="385" text-anchor="middle" font-family="sans-serif" font-size="14" fill="#111827">tau_std step4</text>
<line x1="355.00" y1="320.11" x2="355.00" y2="75.34" stroke="#dc2626" stroke-width="2"/>
<rect x="312.25" y="317.80" width="85.50" height="1.19" fill="#dc2626" fill-opacity="0.16" stroke="#dc2626" stroke-width="2"/>
<line x1="312.25" y1="318.08" x2="397.75" y2="318.08" stroke="#dc2626" stroke-width="3"/>
<circle cx="355.00" cy="306.14" r="5" fill="white" stroke="#dc2626" stroke-width="2"/>
<circle cx="343.00" cy="317.86" r="3" fill="#dc2626" fill-opacity="0.58"/>
<circle cx="347.00" cy="320.11" r="3" fill="#dc2626" fill-opacity="0.58"/>
<circle cx="351.00" cy="317.86" r="3" fill="#dc2626" fill-opacity="0.58"/>
<circle cx="355.00" cy="318.09" r="3" fill="#dc2626" fill-opacity="0.58"/>
<circle cx="359.00" cy="317.85" r="3" fill="#dc2626" fill-opacity="0.58"/>
<circle cx="363.00" cy="317.65" r="3" fill="#dc2626" fill-opacity="0.58"/>
<circle cx="367.00" cy="316.69" r="3" fill="#dc2626" fill-opacity="0.58"/>
<circle cx="343.00" cy="317.01" r="3" fill="#dc2626" fill-opacity="0.58"/>
<circle cx="347.00" cy="317.92" r="3" fill="#dc2626" fill-opacity="0.58"/>
<circle cx="351.00" cy="318.25" r="3" fill="#dc2626" fill-opacity="0.58"/>
<circle cx="355.00" cy="319.38" r="3" fill="#dc2626" fill-opacity="0.58"/>
<circle cx="359.00" cy="316.31" r="3" fill="#dc2626" fill-opacity="0.58"/>
<circle cx="363.00" cy="319.60" r="3" fill="#dc2626" fill-opacity="0.58"/>
<circle cx="367.00" cy="319.35" r="3" fill="#dc2626" fill-opacity="0.58"/>
<circle cx="343.00" cy="318.88" r="3" fill="#dc2626" fill-opacity="0.58"/>
<circle cx="347.00" cy="318.35" r="3" fill="#dc2626" fill-opacity="0.58"/>
<circle cx="351.00" cy="318.89" r="3" fill="#dc2626" fill-opacity="0.58"/>
<circle cx="355.00" cy="319.27" r="3" fill="#dc2626" fill-opacity="0.58"/>
<circle cx="359.00" cy="318.08" r="3" fill="#dc2626" fill-opacity="0.58"/>
<circle cx="363.00" cy="75.34" r="3" fill="#dc2626" fill-opacity="0.58"/>
<text x="355.00" y="385" text-anchor="middle" font-family="sans-serif" font-size="14" fill="#111827">tau_std final</text>
<line x1="545.00" y1="329.66" x2="545.00" y2="326.40" stroke="#059669" stroke-width="2"/>
<rect x="502.25" y="327.53" width="85.50" height="1.00" fill="#059669" fill-opacity="0.16" stroke="#059669" stroke-width="2"/>
<line x1="502.25" y1="327.86" x2="587.75" y2="327.86" stroke="#059669" stroke-width="3"/>
<circle cx="545.00" cy="327.94" r="5" fill="white" stroke="#059669" stroke-width="2"/>
<circle cx="533.00" cy="327.89" r="3" fill="#059669" fill-opacity="0.58"/>
<circle cx="537.00" cy="326.88" r="3" fill="#059669" fill-opacity="0.58"/>
<circle cx="541.00" cy="327.08" r="3" fill="#059669" fill-opacity="0.58"/>
<circle cx="545.00" cy="328.31" r="3" fill="#059669" fill-opacity="0.58"/>
<circle cx="549.00" cy="328.26" r="3" fill="#059669" fill-opacity="0.58"/>
<circle cx="553.00" cy="328.01" r="3" fill="#059669" fill-opacity="0.58"/>
<circle cx="557.00" cy="327.53" r="3" fill="#059669" fill-opacity="0.58"/>
<circle cx="533.00" cy="329.66" r="3" fill="#059669" fill-opacity="0.58"/>
<circle cx="537.00" cy="327.66" r="3" fill="#059669" fill-opacity="0.58"/>
<circle cx="541.00" cy="327.55" r="3" fill="#059669" fill-opacity="0.58"/>
<circle cx="545.00" cy="327.83" r="3" fill="#059669" fill-opacity="0.58"/>
<circle cx="549.00" cy="328.23" r="3" fill="#059669" fill-opacity="0.58"/>
<circle cx="553.00" cy="327.46" r="3" fill="#059669" fill-opacity="0.58"/>
<circle cx="557.00" cy="326.40" r="3" fill="#059669" fill-opacity="0.58"/>
<circle cx="533.00" cy="328.90" r="3" fill="#059669" fill-opacity="0.58"/>
<circle cx="537.00" cy="327.71" r="3" fill="#059669" fill-opacity="0.58"/>
<circle cx="541.00" cy="328.75" r="3" fill="#059669" fill-opacity="0.58"/>
<circle cx="545.00" cy="328.72" r="3" fill="#059669" fill-opacity="0.58"/>
<circle cx="549.00" cy="328.42" r="3" fill="#059669" fill-opacity="0.58"/>
<circle cx="553.00" cy="327.51" r="3" fill="#059669" fill-opacity="0.58"/>
<text x="545.00" y="385" text-anchor="middle" font-family="sans-serif" font-size="14" fill="#111827">tau_abs step4</text>
<line x1="735.00" y1="329.66" x2="735.00" y2="228.83" stroke="#d97706" stroke-width="2"/>
<rect x="692.25" y="327.50" width="85.50" height="1.00" fill="#d97706" fill-opacity="0.16" stroke="#d97706" stroke-width="2"/>
<line x1="692.25" y1="327.86" x2="777.75" y2="327.86" stroke="#d97706" stroke-width="3"/>
<circle cx="735.00" cy="322.99" r="5" fill="white" stroke="#d97706" stroke-width="2"/>
<circle cx="723.00" cy="327.83" r="3" fill="#d97706" fill-opacity="0.58"/>
<circle cx="727.00" cy="329.66" r="3" fill="#d97706" fill-opacity="0.58"/>
<circle cx="731.00" cy="327.51" r="3" fill="#d97706" fill-opacity="0.58"/>
<circle cx="735.00" cy="327.66" r="3" fill="#d97706" fill-opacity="0.58"/>
<circle cx="739.00" cy="327.55" r="3" fill="#d97706" fill-opacity="0.58"/>
<circle cx="743.00" cy="327.08" r="3" fill="#d97706" fill-opacity="0.58"/>
<circle cx="747.00" cy="326.88" r="3" fill="#d97706" fill-opacity="0.58"/>
<circle cx="723.00" cy="327.46" r="3" fill="#d97706" fill-opacity="0.58"/>
<circle cx="727.00" cy="327.53" r="3" fill="#d97706" fill-opacity="0.58"/>
<circle cx="731.00" cy="327.89" r="3" fill="#d97706" fill-opacity="0.58"/>
<circle cx="735.00" cy="328.75" r="3" fill="#d97706" fill-opacity="0.58"/>
<circle cx="739.00" cy="326.40" r="3" fill="#d97706" fill-opacity="0.58"/>
<circle cx="743.00" cy="328.90" r="3" fill="#d97706" fill-opacity="0.58"/>
<circle cx="747.00" cy="328.26" r="3" fill="#d97706" fill-opacity="0.58"/>
<circle cx="723.00" cy="328.31" r="3" fill="#d97706" fill-opacity="0.58"/>
<circle cx="727.00" cy="328.42" r="3" fill="#d97706" fill-opacity="0.58"/>
<circle cx="731.00" cy="328.23" r="3" fill="#d97706" fill-opacity="0.58"/>
<circle cx="735.00" cy="328.72" r="3" fill="#d97706" fill-opacity="0.58"/>
<circle cx="739.00" cy="328.01" r="3" fill="#d97706" fill-opacity="0.58"/>
<circle cx="743.00" cy="228.83" r="3" fill="#d97706" fill-opacity="0.58"/>
<text x="735.00" y="385" text-anchor="middle" font-family="sans-serif" font-size="14" fill="#111827">tau_abs final</text>
</svg>